<svg xmlns="http://www.w3.org/2000/svg" width="300" height="300" viewBox="0 0 300 300"><rect width="100%" height="100%" fill="#DDDDDD"/><path fill="#999999" d="M66.495 141.235c.86-.45 1.4-1.26 1.4-2.31 0-1.63-1.35-2.73-3.98-2.73h-5.13v10.5h5.43c2.76 0 4.2-1.05 4.2-2.86 0-1.32-.75-2.22-1.92-2.6Zm-2.88-3.21c1.19 0 1.83.4 1.83 1.23s-.64 1.25-1.83 1.25h-2.41v-2.48Zm.42 6.84h-2.83v-2.59h2.83c1.26 0 1.94.42 1.94 1.3 0 .9-.68 1.29-1.94 1.29Zm11.85-6.24v3.99c0 1.49-.78 2.17-1.86 2.17-1.04 0-1.63-.59-1.63-1.94v-4.22h-2.35v4.56c0 2.49 1.43 3.63 3.46 3.63.98 0 1.89-.38 2.5-1.08v.96h2.22v-8.07Zm14.52 0-2.28 5.48-2.26-5.48h-2.42l3.5 8.13-.03.08c-.32.71-.68 1-1.32 1-.47 0-.96-.2-1.32-.51l-.86 1.66c.53.47 1.43.74 2.25.74 1.46 0 2.57-.59 3.35-2.54l3.64-8.56Zm10.89 4.07c0-2.6-1.83-4.19-4.2-4.19-2.46 0-4.3 1.74-4.3 4.15 0 2.4 1.81 4.16 4.6 4.16 1.46 0 2.58-.45 3.33-1.31l-1.24-1.34c-.56.52-1.17.78-2.03.78-1.23 0-2.08-.62-2.31-1.63h6.11c.01-.19.04-.44.04-.62Zm-4.18-2.42c1.05 0 1.81.66 1.98 1.68h-3.98c.17-1.03.93-1.68 2-1.68Zm7.98-.58v-1.07h-2.24v8.07h2.34v-3.81c0-1.54.86-2.25 2.15-2.25.18 0 .33.02.52.03v-2.16c-1.24 0-2.2.4-2.77 1.19Zm9.97-4.13v3.92c-.58-.67-1.42-.98-2.41-.98-2.28 0-4.04 1.62-4.04 4.15 0 2.54 1.76 4.16 4.04 4.16 1.08 0 1.93-.34 2.52-1.05v.93h2.23v-11.13Zm-2.01 9.33c-1.17 0-2.07-.84-2.07-2.24 0-1.39.9-2.23 2.07-2.23 1.16 0 2.06.84 2.06 2.23 0 1.4-.9 2.24-2.06 2.24Zm9.77-6.39c-1.29 0-2.6.35-3.48.98l.84 1.63c.58-.46 1.47-.75 2.32-.75 1.26 0 1.86.58 1.86 1.59h-1.86c-2.46 0-3.46.99-3.46 2.42 0 1.39 1.12 2.44 3.01 2.44 1.19 0 2.03-.39 2.46-1.12v1h2.19v-4.6c0-2.45-1.42-3.59-3.88-3.59Zm-.18 6.74c-.83 0-1.32-.39-1.32-.98 0-.54.34-.95 1.44-.95h1.6v.83c-.27.74-.94 1.1-1.72 1.1Zm20.76-6.74c-1.22 0-2.27.5-2.91 1.32-.57-.88-1.53-1.32-2.66-1.32-1.03 0-1.93.36-2.53 1.05v-.93h-2.24v8.07h2.34v-4.05c0-1.44.74-2.12 1.77-2.12.98 0 1.53.61 1.53 1.91v4.26h2.34v-4.05c0-1.44.74-2.12 1.79-2.12.94 0 1.53.61 1.53 1.91v4.26h2.34v-4.62c0-2.46-1.38-3.57-3.3-3.57Zm8.65 0c-1.29 0-2.59.35-3.48.98l.84 1.63c.59-.46 1.47-.75 2.33-.75 1.26 0 1.86.58 1.86 1.59h-1.86c-2.46 0-3.47.99-3.47 2.42 0 1.39 1.13 2.44 3.02 2.44 1.18 0 2.02-.39 2.46-1.12v1h2.19v-4.6c0-2.45-1.43-3.59-3.89-3.59Zm-.18 6.74c-.82 0-1.32-.39-1.32-.98 0-.54.35-.95 1.44-.95h1.61v.83c-.27.74-.95 1.1-1.73 1.1Zm11.09-6.74c-1.04 0-1.94.33-2.57.96v-3.9h-2.34v11.13h2.34v-3.99c0-1.48.81-2.18 1.94-2.18 1.03 0 1.63.61 1.63 1.91v4.26h2.34v-4.62c0-2.46-1.44-3.57-3.34-3.57Zm8.17 8.31c2.42 0 3.81-1.06 3.81-2.56 0-3.19-4.87-1.85-4.87-3.23 0-.42.45-.75 1.5-.75.73 0 1.53.15 2.32.6l.78-1.66c-.76-.45-1.99-.71-3.1-.71-2.36 0-3.74 1.08-3.74 2.61 0 3.23 4.88 1.87 4.88 3.2 0 .45-.41.73-1.49.73-.99 0-2.08-.31-2.8-.78l-.78 1.68c.75.49 2.13.87 3.49.87Zm11.04-8.19v3.99c0 1.49-.78 2.17-1.86 2.17-1.03 0-1.63-.59-1.63-1.94v-4.22h-2.34v4.56c0 2.49 1.42 3.63 3.45 3.63.99 0 1.89-.38 2.5-1.08v.96h2.22v-8.07Zm4.52 8.07h2.34v-11.13h-2.34Zm8.35.12c2.57 0 4.43-1.72 4.43-4.16 0-2.42-1.86-4.15-4.43-4.15-2.56 0-4.44 1.73-4.44 4.15 0 2.44 1.88 4.16 4.44 4.16Zm0-1.92c-1.17 0-2.07-.84-2.07-2.24 0-1.39.9-2.23 2.07-2.23s2.06.84 2.06 2.23c0 1.4-.89 2.24-2.06 2.24Zm10.56-.24c-.25.2-.6.3-.94.3-.63 0-1.01-.37-1.01-1.06v-3.29h2.01v-1.8h-2.01v-1.97h-2.34v1.97h-1.24v1.8h1.24v3.32c0 1.92 1.11 2.89 3.02 2.89.72 0 1.42-.16 1.9-.51Zm6.86-6.15c-1.1 0-2.04.38-2.67 1.06v-.94h-2.24v8.07h2.34v-3.99c0-1.48.81-2.18 1.94-2.18 1.03 0 1.63.61 1.63 1.91v4.26h2.34v-4.62c0-2.46-1.44-3.57-3.34-3.57Zm6.63-1.01c.87 0 1.45-.56 1.45-1.34 0-.72-.58-1.26-1.45-1.26s-1.46.57-1.46 1.3c0 .74.59 1.3 1.46 1.3Zm-1.17 9.2h2.34v-8.07h-2.34Zm9.42-8.19c-1.1 0-2.04.38-2.67 1.06v-.94h-2.24v8.07h2.34v-3.99c0-1.48.81-2.18 1.94-2.18 1.03 0 1.63.61 1.63 1.91v4.26h2.34v-4.62c0-2.46-1.44-3.57-3.34-3.57Zm11.65.12v1.03c-.61-.77-1.54-1.15-2.67-1.15-2.23 0-4.03 1.55-4.03 3.9 0 2.36 1.8 3.9 4.03 3.9 1.05 0 1.94-.33 2.55-1.01v.35c0 1.45-.72 2.21-2.37 2.21-1.03 0-2.16-.37-2.85-.92l-.93 1.68c.95.73 2.43 1.11 3.96 1.11 2.91 0 4.53-1.38 4.53-4.38v-6.72Zm-2.2 5.76c-1.23 0-2.13-.79-2.13-1.98 0-1.18.9-1.98 2.13-1.98s2.11.8 2.11 1.98c0 1.19-.88 1.98-2.11 1.98Zm-173.92 13.59v-1.07h-2.24v8.08h2.34v-3.82c0-1.54.86-2.24 2.15-2.24.18 0 .33.01.52.03v-2.16c-1.24 0-2.2.4-2.77 1.18Zm7.38-1.18c-1.29 0-2.6.34-3.48.97l.84 1.64c.58-.47 1.47-.75 2.32-.75 1.26 0 1.86.58 1.86 1.58h-1.86c-2.46 0-3.46 1-3.46 2.42 0 1.4 1.12 2.45 3.01 2.45 1.19 0 2.03-.39 2.46-1.13v1.01h2.19v-4.61c0-2.45-1.42-3.58-3.88-3.58Zm-.18 6.73c-.83 0-1.32-.39-1.32-.97 0-.54.34-.95 1.44-.95h1.6v.82c-.27.74-.94 1.1-1.72 1.1Zm8.89 1.58c2.42 0 3.81-1.07 3.81-2.57 0-3.18-4.87-1.84-4.87-3.22 0-.42.45-.75 1.5-.75.73 0 1.53.15 2.32.59l.78-1.66c-.76-.45-1.99-.7-3.1-.7-2.36 0-3.74 1.08-3.74 2.61 0 3.22 4.88 1.87 4.88 3.19 0 .45-.41.74-1.49.74-.99 0-2.08-.32-2.8-.78l-.78 1.68c.75.49 2.13.87 3.49.87Zm15.59-8.31c-1.22 0-2.27.49-2.91 1.31-.57-.88-1.53-1.31-2.66-1.31-1.03 0-1.93.36-2.53 1.04v-.93h-2.24v8.08h2.34v-4.06c0-1.44.74-2.11 1.77-2.11.98 0 1.53.6 1.53 1.91v4.26h2.34v-4.06c0-1.44.74-2.11 1.79-2.11.94 0 1.53.6 1.53 1.91v4.26h2.34v-4.63c0-2.45-1.38-3.56-3.3-3.56Zm6.57-1.01c.87 0 1.45-.57 1.45-1.35 0-.72-.58-1.26-1.45-1.26s-1.46.57-1.46 1.31c0 .73.59 1.3 1.46 1.3Zm-1.17 9.2h2.34v-8.08h-2.34Zm13.53-8.19c-1.01 0-1.83.31-2.43.97v-3.91h-2.34v11.13h2.23v-.93c.59.7 1.46 1.05 2.54 1.05 2.26 0 4.02-1.62 4.02-4.16s-1.76-4.15-4.02-4.15Zm-.41 6.38c-1.17 0-2.05-.84-2.05-2.23 0-1.39.88-2.23 2.05-2.23s2.06.84 2.06 2.23c0 1.39-.89 2.23-2.06 2.23Zm9.83 1.93c2.56 0 4.42-1.73 4.42-4.16s-1.86-4.15-4.42-4.15c-2.57 0-4.44 1.72-4.44 4.15 0 2.43 1.87 4.16 4.44 4.16Zm0-1.93c-1.17 0-2.07-.84-2.07-2.23 0-1.39.9-2.23 2.07-2.23s2.05.84 2.05 2.23c0 1.39-.88 2.23-2.05 2.23Zm5.56-4.44h1.68l.17-4.25h-2Zm3.65 6.25h2.34v-11.13h-2.34Zm5.68-9.2c.87 0 1.46-.57 1.46-1.35 0-.72-.59-1.26-1.46-1.26s-1.45.57-1.45 1.31c0 .73.58 1.3 1.45 1.3Zm-1.17 9.2h2.34v-8.08h-2.34Zm7.23.12c2.42 0 3.81-1.07 3.81-2.57 0-3.18-4.87-1.84-4.87-3.22 0-.42.45-.75 1.5-.75.73 0 1.53.15 2.32.59l.78-1.66c-.76-.45-1.99-.7-3.1-.7-2.36 0-3.74 1.08-3.74 2.61 0 3.22 4.88 1.87 4.88 3.19 0 .45-.41.74-1.49.74-.99 0-2.08-.32-2.8-.78l-.78 1.68c.75.49 2.13.87 3.49.87Zm10.16-8.31c-1.04 0-1.94.33-2.57.95v-3.89h-2.34v11.13h2.34v-4c0-1.48.81-2.17 1.94-2.17 1.03 0 1.63.6 1.63 1.91v4.26h2.34v-4.63c0-2.45-1.44-3.56-3.34-3.56Zm6.63-1.01c.87 0 1.45-.57 1.45-1.35 0-.72-.58-1.26-1.45-1.26s-1.46.57-1.46 1.31c0 .73.59 1.3 1.46 1.3Zm-1.17 9.2h2.34v-8.08h-2.34Zm14.77 0h2.84l-3.66-4.65 3.36-3.43h-2.79l-3.42 3.25v-6.3h-2.34v11.13h2.34v-2.06l1.12-1.11Zm11.45-4.01c0-2.59-1.83-4.18-4.2-4.18-2.46 0-4.31 1.74-4.31 4.15 0 2.4 1.82 4.16 4.61 4.16 1.45 0 2.58-.45 3.33-1.31l-1.25-1.35c-.55.52-1.17.78-2.02.78-1.23 0-2.09-.62-2.31-1.62h6.1c.02-.2.05-.45.05-.63Zm-4.19-2.41c1.05 0 1.82.66 1.98 1.67h-3.97c.16-1.03.93-1.67 1.99-1.67Zm7.98-.59v-1.07h-2.23v8.08h2.34v-3.82c0-1.54.85-2.24 2.14-2.24.18 0 .33.01.53.03v-2.16c-1.25 0-2.21.4-2.78 1.18Zm7.38-1.18c-1.29 0-2.59.34-3.48.97l.84 1.64c.59-.47 1.47-.75 2.33-.75 1.26 0 1.86.58 1.86 1.58h-1.86c-2.46 0-3.47 1-3.47 2.42 0 1.4 1.13 2.45 3.02 2.45 1.18 0 2.02-.39 2.46-1.13v1.01h2.19v-4.61c0-2.45-1.43-3.58-3.89-3.58Zm-.18 6.73c-.82 0-1.32-.39-1.32-.97 0-.54.35-.95 1.44-.95h1.61v.82c-.27.74-.95 1.1-1.73 1.1Zm12.2 1.46h2.83l-3.66-4.65 3.36-3.43h-2.79l-3.42 3.25v-6.3h-2.34v11.13h2.34v-2.06l1.13-1.11Zm16.03-4.01c0-2.59-1.83-4.18-4.2-4.18-2.46 0-4.3 1.74-4.3 4.15 0 2.4 1.81 4.16 4.6 4.16 1.46 0 2.58-.45 3.33-1.31l-1.24-1.35c-.56.52-1.17.78-2.03.78-1.23 0-2.08-.62-2.31-1.62h6.11c.01-.2.04-.45.04-.63Zm-4.18-2.41c1.05 0 1.81.66 1.98 1.67h-3.98c.17-1.03.93-1.67 2-1.67Zm11.62-4.71v3.91c-.58-.66-1.42-.97-2.41-.97-2.28 0-4.04 1.61-4.04 4.15s1.76 4.16 4.04 4.16c1.08 0 1.93-.35 2.52-1.05v.93h2.23v-11.13Zm-2.01 9.32c-1.17 0-2.07-.84-2.07-2.23 0-1.39.9-2.23 2.07-2.23 1.16 0 2.06.84 2.06 2.23 0 1.39-.9 2.23-2.06 2.23Zm7.68-7.39c.87 0 1.46-.57 1.46-1.35 0-.72-.59-1.26-1.46-1.26s-1.45.57-1.45 1.31c0 .73.58 1.3 1.45 1.3Zm-1.17 9.2h2.34v-8.08h-2.34Z"/></svg>